HIERARCHY
ROOT hip
{
	OFFSET 0.000000 0.000000 0.000000
	CHANNELS 6 Xposition Yposition Zposition Xrotation Zrotation Yrotation 
	JOINT abdomen
	{
		OFFSET 0.000000 3.422050 0.000000
		CHANNELS 3 Xrotation Zrotation Yrotation 
		JOINT chest
		{
			OFFSET 0.000000 8.486693 -0.684411
			CHANNELS 3 Xrotation Zrotation Yrotation 
			JOINT neck
			{
				OFFSET 0.000000 10.266162 -0.273764
				CHANNELS 3 Xrotation Zrotation Yrotation 
				JOINT head
				{
					OFFSET 0.000000 3.148285 0.000000
					CHANNELS 3 Xrotation Zrotation Yrotation 
					End Site
					{
						OFFSET 0.000000 3.148289 0.000000
					}
				}
			}
			JOINT lCollar
			{
				OFFSET 3.422053 6.707223 -0.821293
				CHANNELS 3 Yrotation Zrotation Xrotation 
				JOINT lShldr
				{
					OFFSET 3.285171 0.000000 0.000000
					CHANNELS 3 Zrotation Yrotation Xrotation 
					JOINT lForeArm
					{
						OFFSET 10.129278 0.000000 0.000000
						CHANNELS 3 Yrotation Zrotation Xrotation 
						JOINT lHand
						{
							OFFSET 8.486692 0.000000 0.000000
							CHANNELS 3 Zrotation Yrotation Xrotation 
							End Site
							{
								OFFSET 4.106464 0.000000 0.000000
							}
						}
					}
				}
			}
			JOINT rCollar
			{
				OFFSET -3.558935 6.707223 -0.821293
				CHANNELS 3 Yrotation Zrotation Xrotation 
				JOINT rShldr
				{
					OFFSET -3.148289 0.000000 0.000000
					CHANNELS 3 Zrotation Yrotation Xrotation 
					JOINT rForeArm
					{
						OFFSET -10.266159 0.000000 0.000000
						CHANNELS 3 Yrotation Zrotation Xrotation 
						JOINT rHand
						{
							OFFSET -8.349810 0.000000 0.000000
							CHANNELS 3 Zrotation Yrotation Xrotation 
							End Site
							{
								OFFSET -4.106464 0.000000 0.000000
							}
						}
					}
				}
			}
		}
	}
	JOINT lThigh
	{
		OFFSET 5.338403 -1.642589 1.368821
		CHANNELS 3 Xrotation Zrotation Yrotation 
		JOINT lShin
		{
			OFFSET -2.053232 -20.121670 0.000000
			CHANNELS 3 Xrotation Zrotation Yrotation 
			JOINT lFoot
			{
				OFFSET 0.000000 -19.300380 -1.231939
				CHANNELS 3 Xrotation Yrotation Zrotation 
				End Site
				{
					OFFSET 0.000000 -2.463878 4.653993
				}
			}
		}
	}
	JOINT rThigh
	{
		OFFSET -5.338403 -1.642589 1.368821
		CHANNELS 3 Xrotation Zrotation Yrotation 
		JOINT rShin
		{
			OFFSET 2.053232 -20.121670 0.000000
			CHANNELS 3 Xrotation Zrotation Yrotation 
			JOINT rFoot
			{
				OFFSET 0.000000 -19.300380 -1.231939
				CHANNELS 3 Xrotation Yrotation Zrotation 
				End Site
				{
					OFFSET 0.000000 -2.463878 4.653993
				}
			}
		}
	}
}
MOTION
Frames: 19
Frame Time: 0.033264
0.000000 43.528500 0.000000 0.000000 0.000000 0.000000 0.000000 0.000000 0.000000 0.000000 0.000000 0.000000 0.000000 0.000000 0.000000 0.000000 0.000000 0.000000 0.000000 0.000000 0.000000 0.000000 0.000000 0.000000 0.000000 0.000000 0.000000 0.000000 0.000000 0.000000 0.000000 0.000000 0.000000 0.000000 0.000000 0.000000 0.000000 0.000000 0.000000 0.000000 0.000000 0.000000 0.000000 0.000000 0.000000 0.000000 0.000000 0.000000 0.000000 0.000000 0.000000 0.000000 0.000000 0.000000 0.000000 0.000000 0.000000 0.000000 0.000000 0.000000 
19.995884 19.711861 -0.747939 -51.996662 0.132942 -179.715454 23.663382 -0.158543 -0.138616 37.800434 -0.588221 -0.835339 -33.000099 0.000000 0.000000 -15.001697 0.000000 0.000000 -46.257080 24.936836 -12.670109 3.115794 -22.749804 -5.251155 -4.892143 2.004135 -11.741926 63.546013 1.096158 -13.842107 35.370407 -18.557631 -17.041815 -5.512126 43.755825 -5.815959 4.014644 -8.371778 -11.757520 -61.626839 -4.451236 -4.561833 -153.817535 38.623508 2.964650 99.971985 14.984406 0.388437 -3.444742 0.196898 12.068945 -153.839539 -38.637669 -2.964036 99.959343 -15.003904 -0.393482 -3.429218 -0.215473 -12.090541 
19.995884 19.711861 -0.627122 -51.996662 0.132942 -179.715454 24.604988 -0.158390 -0.138599 36.748940 -0.588303 -0.835432 -32.740601 0.051026 -0.022598 -14.424839 0.000000 0.000000 -44.153168 24.239151 -13.612325 3.338316 -24.778776 -5.278986 -5.295610 2.583875 -11.696355 62.999283 1.332067 -13.380836 33.795685 -17.943604 -17.697515 -5.740548 45.124439 -5.937280 4.725138 -8.649620 -11.649488 -61.274754 -4.736142 -4.104402 -153.794388 38.453629 3.027933 99.971985 14.984406 0.388437 -3.140382 0.371830 12.125128 -153.815582 -38.467274 -3.027103 99.959343 -15.003904 -0.393482 -3.125780 -0.389622 -12.145659 
19.995884 19.711861 -0.506305 -51.996666 0.132942 -179.715454 25.547625 -0.158238 -0.138580 35.696018 -0.588387 -0.835523 -32.480843 0.102205 -0.044987 -13.846984 0.000000 0.000000 -42.062851 23.506788 -14.525442 3.566986 -26.818226 -5.316344 -5.699992 3.163634 -11.646644 62.454029 1.572530 -12.921467 32.228748 -17.310669 -18.335081 -5.979434 46.495918 -6.069868 5.437192 -8.926310 -11.537820 -60.924618 -5.023990 -3.648296 -153.771530 38.283726 3.090985 99.971985 14.984406 0.388437 -2.836139 0.547085 12.180391 -153.791885 -38.296833 -3.089931 99.959343 -15.003905 -0.393481 -2.822455 -0.564088 -12.199862 
19.995884 19.711861 -0.385487 -51.996670 0.132942 -179.715454 26.491158 -0.158086 -0.138559 34.641846 -0.588472 -0.835613 -32.220863 0.153536 -0.067166 -13.268161 0.000000 0.000000 -39.987663 22.741081 -15.407868 3.802604 -28.866877 -5.363943 -6.105341 3.743337 -11.592772 61.910324 1.817497 -12.464068 30.670166 -16.659536 -18.953918 -6.229824 47.869801 -6.214756 6.150772 -9.201769 -11.422515 -60.576469 -5.314738 -3.193544 -153.748978 38.113796 3.153804 99.971977 14.984407 0.388437 -2.532014 0.722654 12.234729 -153.768509 -38.126381 -3.152528 99.959351 -15.003905 -0.393482 -2.519245 -0.738862 -12.253151 
19.995884 19.711861 -0.264670 -51.996662 0.132942 -179.715454 27.435457 -0.157934 -0.138535 33.586601 -0.588559 -0.835701 -31.960648 0.205017 -0.089133 -12.688396 0.000000 0.000000 -37.928970 21.943462 -16.258162 4.046072 -30.923422 -5.422602 -6.511713 4.322910 -11.534722 61.368233 2.066917 -12.008710 29.120430 -15.990947 -19.553476 -6.492904 49.245655 -6.373118 6.865852 -9.475934 -11.303591 -60.230343 -5.608345 -2.740172 -153.726715 37.943848 3.216396 99.971970 14.984406 0.388437 -2.228008 0.898530 12.288146 -153.745407 -37.955910 -3.214892 99.959343 -15.003904 -0.393482 -2.216149 -0.913935 -12.305523 
19.995884 19.711861 -0.143852 -51.996655 0.132942 -179.715454 28.380402 -0.157783 -0.138508 32.530460 -0.588648 -0.835788 -31.700199 0.256647 -0.110887 -12.107718 0.000000 0.000000 -35.888012 21.115519 -17.075090 4.298406 -32.986523 -5.493257 -6.919160 4.902279 -11.472480 60.827808 2.320739 -11.555455 27.579987 -15.305672 -20.133263 -6.770017 50.623043 -6.546291 7.582397 -9.748728 -11.181048 -59.886292 -5.904764 -2.288202 -153.704727 37.773869 3.278760 99.971970 14.984406 0.388437 -1.924120 1.074704 12.340636 -153.722595 -37.785404 -3.277025 99.959343 -15.003904 -0.393482 -1.913168 -1.089299 -12.356975 
19.995884 19.711861 -0.023035 -51.996662 0.132942 -179.715454 29.325857 -0.157631 -0.138479 31.473595 -0.588738 -0.835873 -31.439514 0.308424 -0.132426 -11.526154 0.000000 0.000000 -33.865822 20.258896 -17.857567 4.560760 -35.054787 -5.576982 -7.327740 5.481369 -11.406018 60.289112 2.578905 -11.104370 26.049231 -14.604526 -20.692837 -7.062684 52.001465 -6.735787 8.300378 -10.020084 -11.054908 -59.544292 -6.203950 -1.837661 -153.683014 37.603870 3.340899 99.971985 14.984406 0.388437 -1.620352 1.251167 12.392200 -153.700058 -37.614880 -3.338933 99.959343 -15.003904 -0.393482 -1.610302 -1.264947 -12.407505 
19.995884 19.711861 0.097782 -51.996662 0.132942 -179.715454 30.271709 -0.157481 -0.138448 30.416185 -0.588830 -0.835957 -31.178604 0.360348 -0.153749 -10.943731 0.000000 0.000000 -31.863312 19.375349 -18.604700 4.834456 -37.126831 -5.675027 -7.737505 6.060103 -11.335321 59.752209 2.841359 -10.655520 24.528521 -13.888345 -21.231821 -7.372661 53.380470 -6.943355 9.019764 -10.289932 -10.925182 -59.204407 -6.505858 -1.388572 -153.661591 37.433849 3.402819 99.971992 14.984407 0.388438 -1.316703 1.427911 12.442831 -153.677826 -37.444332 -3.400614 99.959343 -15.003904 -0.393482 -1.307552 -1.440869 -12.457116 
19.995884 19.711861 0.218599 -51.996662 0.132942 -179.715454 31.217813 -0.157330 -0.138414 29.358425 -0.588924 -0.836038 -30.917480 0.412417 -0.174856 -10.360476 0.000000 0.000000 -29.881193 18.466702 -19.315756 5.121005 -39.201206 -5.788826 -8.148516 6.638409 -11.260372 59.217152 3.108044 -10.208967 23.018166 -13.157997 -21.749887 -7.701963 54.759583 -7.170999 9.740517 -10.558202 -10.791885 -58.866676 -6.810442 -0.940957 -153.640442 37.263813 3.464519 99.971992 14.984407 0.388438 -1.013173 1.604928 12.492530 -153.655853 -37.273762 -3.462073 99.959343 -15.003904 -0.393482 -1.004919 -1.617058 -12.505798 
19.995884 19.711861 0.339417 -51.996662 0.132942 -179.715454 32.164043 -0.157181 -0.138377 28.300476 -0.589019 -0.836119 -30.656122 0.464630 -0.195744 -9.776420 0.000000 0.000000 -27.920080 17.534830 -19.990168 5.422153 -41.276466 -5.920059 -8.560822 7.216207 -11.181141 58.684010 3.378898 -9.764768 21.518410 -12.414362 -22.246752 -8.052908 56.138256 -7.421031 10.462600 -10.824821 -10.655030 -58.531094 -7.117653 -0.494837 -153.619583 37.093758 3.526002 99.971992 14.984407 0.388437 -0.709764 1.782208 12.541294 -153.634171 -37.103176 -3.523312 99.959343 -15.003905 -0.393481 -0.702401 -1.793504 -12.553554 
19.995884 19.711861 0.460234 -51.996662 0.132942 -179.715454 33.110283 -0.157032 -0.138338 27.242527 -0.589116 -0.836197 -30.394547 0.516986 -0.216413 -9.191593 0.000000 0.000000 -25.980417 16.581671 -20.627523 5.739935 -43.351166 -6.070688 -8.974483 7.793425 -11.097612 58.152847 3.653860 -9.322987 20.029472 -11.658342 -22.722193 -8.428214 57.516041 -7.696160 11.185980 -11.089725 -10.514640 -58.197712 -7.427444 -0.050232 -153.598969 36.923672 3.587270 99.971985 14.984406 0.388438 -0.406475 1.959745 12.589127 -153.612778 -36.932568 -3.584332 99.959328 -15.003904 -0.393482 -0.400000 -1.970200 -12.600383 
19.995884 19.711861 0.581051 -51.996662 0.132942 -179.715454 34.056381 -0.156883 -0.138297 26.184763 -0.589213 -0.836273 -30.132753 0.569483 -0.236861 -8.606021 0.000000 0.000000 -24.062525 15.609192 -21.227551 6.076720 -45.423820 -6.243019 -9.389549 8.369980 -11.009758 57.623676 3.932864 -8.883674 18.551527 -10.890859 -23.176025 -8.831035 58.892345 -7.999531 11.910615 -11.352839 -10.370734 -57.866547 -7.739766 0.392837 -153.578659 36.753582 3.648325 99.971985 14.984406 0.388437 -0.103307 2.137529 12.636022 -153.591629 -36.761936 -3.645136 99.959343 -15.003904 -0.393482 -0.097716 -2.147137 -12.646281 
19.995884 19.711861 0.701869 -51.996662 0.132942 -179.715454 35.002235 -0.156736 -0.138253 25.127359 -0.589313 -0.836348 -29.870729 0.622119 -0.257087 -8.019734 0.000000 0.000000 -22.166609 14.619373 -21.790115 6.435301 -47.492928 -6.439779 -9.806088 8.945807 -10.917560 57.096596 4.215848 -8.446889 17.084702 -10.112836 -23.608122 -9.265093 60.266640 -8.334861 12.636475 -11.614105 -10.223337 -57.537624 -8.054571 0.834354 -153.558624 36.583473 3.709169 99.971985 14.984406 0.388437 0.199740 2.315551 12.681978 -153.570786 -36.591301 -3.705728 99.959343 -15.003904 -0.393482 0.204451 -2.324306 -12.691248 
19.995884 19.711861 0.822686 -51.996662 0.132942 -179.715454 35.947689 -0.156589 -0.138207 24.070492 -0.589413 -0.836421 -29.608505 0.674894 -0.277090 -7.432761 0.000000 0.000000 -20.292786 13.614228 -22.315226 6.818998 -49.557026 -6.664227 -10.224148 9.520818 -10.820992 56.571621 4.502743 -8.012682 15.629102 -9.325213 -24.018391 -9.734786 61.638325 -8.706539 13.363506 -11.873444 -10.072467 -57.210968 -8.371809 1.274299 -153.538849 36.413349 3.769805 99.971985 14.984406 0.388437 0.502666 2.493803 12.726995 -153.550186 -36.420647 -3.766106 99.959343 -15.003904 -0.393482 0.506501 -2.501700 -12.735285 
19.995884 19.711861 0.943503 -51.996662 0.132942 -179.715454 36.892632 -0.156443 -0.138158 23.014347 -0.589515 -0.836492 -29.346062 0.727805 -0.296869 -6.845135 0.000000 0.000000 -18.441032 12.595745 -22.802975 7.231770 -51.614590 -6.920260 -10.643788 10.094944 -10.720028 56.048805 4.793481 -7.581105 14.184773 -8.528921 -24.406782 -10.245376 63.006817 -9.119819 14.091681 -12.130803 -9.918156 -56.886589 -8.691428 1.712657 -153.519318 36.243214 3.830235 99.971985 14.984406 0.388437 0.805472 2.672276 12.771071 -153.529861 -36.249973 -3.826277 99.959343 -15.003904 -0.393482 0.808433 -2.679311 -12.778388 
19.995884 19.711861 1.064321 -51.996662 0.132942 -179.715454 37.836945 -0.156298 -0.138107 21.959103 -0.589618 -0.836561 -29.083414 0.780853 -0.316421 -6.256881 0.000000 0.000000 -16.611279 11.565922 -23.253595 7.678391 -53.664085 -7.212597 -11.065068 10.668105 -10.614646 55.528214 5.087994 -7.152208 12.751752 -7.724908 -24.773283 -10.803168 64.371445 -9.581000 14.820954 -12.386106 -9.760427 -56.564533 -9.013381 2.149412 -153.500076 36.073059 3.890460 99.971977 14.984407 0.388437 1.108155 2.850962 12.814201 -153.509811 -36.079296 -3.886240 99.959343 -15.003905 -0.393481 1.110247 -2.857127 -12.820551 
19.995884 19.711861 1.185138 -51.996655 0.132942 -179.715454 38.780468 -0.156154 -0.138054 20.904926 -0.589723 -0.836628 -28.820551 0.834034 -0.335747 -5.668033 0.000000 0.000000 -14.803358 10.526725 -23.667400 8.164685 -55.704037 -7.547004 -11.488045 11.240226 -10.504817 55.009884 5.386212 -6.726040 11.330037 -6.914108 -25.117931 -11.415811 65.731522 -10.097722 15.551275 -12.639293 -9.599311 -56.244797 -9.337613 2.584547 -153.481094 35.902912 3.950485 99.971970 14.984406 0.388437 1.410718 3.029854 12.856395 -153.490021 -35.908607 -3.945999 99.959343 -15.003904 -0.393482 1.411945 -3.035144 -12.861785 
19.995884 19.711861 1.305955 -51.996662 0.132942 -179.715454 39.723095 -0.156011 -0.137998 19.852011 -0.589828 -0.836693 -28.557487 0.887349 -0.354845 -5.078618 0.000000 0.000000 -13.017038 9.480089 -24.044777 8.697813 -57.732899 -7.930585 -11.912769 11.811223 -10.390512 54.493847 5.688061 -6.302646 9.919600 -6.097456 -25.440781 -12.092659 67.086227 -10.679333 16.282606 -12.890301 -9.434839 -55.927425 -9.664075 3.018051 -153.462372 35.732742 4.010309 99.971970 14.984404 0.388436 1.713159 3.208941 12.897639 -153.470505 -35.737900 -4.005553 99.959343 -15.003904 -0.393482 1.713525 -3.213350 -12.902077 
